# Blender 4.2.3 LTS
# www.blender.org
mtllib Tank.mtl
o Cube
v -1.000000 -1.000000 1.000000
v -0.104623 -0.034527 0.500000
v -1.000000 -1.000000 -1.000000
v -0.500000 -0.190506 -0.500000
v 1.000000 -1.000000 1.000000
v 0.104623 -0.034527 0.500000
v 1.000000 -1.000000 -1.000000
v 0.500000 -0.190506 -0.500000
v -1.000000 -0.190506 1.000000
v -1.000000 -0.190506 -1.000000
v 1.000000 -0.190506 -1.000000
v 1.000000 -0.190506 1.000000
v -0.104623 0.153515 0.500000
v -0.500000 0.309494 -0.500000
v 0.500000 0.309494 -0.500000
v 0.104623 0.153515 0.500000
v 0.500000 -0.190506 0.500000
v -0.500000 -0.190506 0.500000
v 0.500000 0.309494 0.500000
v -0.500000 0.309494 0.500000
v 0.104623 -0.034527 1.518245
v -0.104623 -0.034527 1.518245
v 0.104623 0.153515 1.518245
v -0.104623 0.153515 1.518245
vn -1.0000 -0.0000 -0.0000
vn -0.0000 -0.0000 -1.0000
vn 1.0000 -0.0000 -0.0000
vn -0.0000 -0.0000 1.0000
vn -0.0000 -1.0000 -0.0000
vn -0.0000 1.0000 -0.0000
vt 0.625000 0.000000
vt 0.375000 0.250000
vt 0.375000 0.000000
vt 0.625000 0.250000
vt 0.375000 0.500000
vt 0.625000 0.500000
vt 0.375000 0.750000
vt 0.625000 0.750000
vt 0.375000 1.000000
vt 0.125000 0.750000
vt 0.125000 0.500000
vt 0.793003 0.687500
vt 0.812500 0.562500
vt 0.875000 0.750000
vt 0.812500 0.687500
vt 0.687500 0.562500
vt 0.875000 0.500000
vt 0.687500 0.687500
vt 0.706997 0.687500
vt 0.706997 0.687500
vt 0.625000 1.000000
s 0
f 9/1/1 3/2/1 1/3/1
f 10/4/2 7/5/2 3/2/2
f 11/6/3 5/7/3 7/5/3
f 12/8/4 1/9/4 5/7/4
f 7/5/5 1/10/5 3/11/5
f 2/12/1 24/12/1 13/12/1
f 4/13/6 9/14/6 18/15/6
f 8/16/6 10/17/6 4/13/6
f 17/18/6 11/6/6 8/16/6
f 18/15/6 12/8/6 17/18/6
f 14/13/6 19/18/6 15/16/6
f 4/13/2 15/16/2 8/16/2
f 8/16/3 19/18/3 17/18/3
f 18/15/1 14/13/1 4/13/1
f 2/12/4 17/18/4 6/19/4
f 16/20/4 20/15/4 13/12/4
f 6/19/4 19/18/4 16/20/4
f 13/12/4 18/15/4 2/12/4
f 21/19/4 24/12/4 22/12/4
f 13/12/6 23/20/6 16/20/6
f 16/20/3 21/19/3 6/19/3
f 6/19/5 22/12/5 2/12/5
f 9/1/1 10/4/1 3/2/1
f 10/4/2 11/6/2 7/5/2
f 11/6/3 12/8/3 5/7/3
f 12/8/4 9/21/4 1/9/4
f 7/5/5 5/7/5 1/10/5
f 2/12/1 22/12/1 24/12/1
f 4/13/6 10/17/6 9/14/6
f 8/16/6 11/6/6 10/17/6
f 17/18/6 12/8/6 11/6/6
f 18/15/6 9/14/6 12/8/6
f 14/13/6 20/15/6 19/18/6
f 4/13/2 14/13/2 15/16/2
f 8/16/3 15/16/3 19/18/3
f 18/15/1 20/15/1 14/13/1
f 2/12/4 18/15/4 17/18/4
f 16/20/4 19/18/4 20/15/4
f 6/19/4 17/18/4 19/18/4
f 13/12/4 20/15/4 18/15/4
f 21/19/4 23/20/4 24/12/4
f 13/12/6 24/12/6 23/20/6
f 16/20/3 23/20/3 21/19/3
f 6/19/5 21/19/5 22/12/5
